# xmcd
# 
# Track frame offsets:
#     150
#     4967
#     34530
#     57897
#     79990
#     82182
#     98247
#     127175
#     140180
#     165202
#     188095
#     204937
#     226440
#     230510
# 
# Disc length: 3473
# 
# Revision: 4
# Processed by: cddbd v1.5.2PL0 Copyright (c) Steve Scherf et al.
# Submitted via: fre:ac v1.0.17
# 
DISCID=b90d8f0e
DTITLE=Quincy Jones - Back On The Block
DYEAR=1989
DGENRE=R&B
TTITLE0=Prologue (2Q's Rap)
TTITLE1=Back On The Block
TTITLE2=I Don't Go For That
TTITLE3=I'll Be Good To You
TTITLE4=The Verb To Be
TTITLE5=Wee B. Dooinit
TTITLE6=The Places You Find Love
TTITLE7=Jazz Corner Of The World
TTITLE8=Birdland
TTITLE9=Setembro (Brazilian Wedding Song)
TTITLE10=One Man Woman
TTITLE11=Tomorrow (A Better You, Better Me)
TTITLE12=Prelude To The Garden
TTITLE13=The Secret Garden (Sweet Seduction Suite)
EXTD=
EXTT0=
EXTT1=
EXTT2=
EXTT3=
EXTT4=
EXTT5=
EXTT6=
EXTT7=
EXTT8=
EXTT9=
EXTT10=
EXTT11=
EXTT12=
EXTT13=
PLAYORDER=
